<?xml version="1.0" encoding="UTF-8" standalone="no"?>
<!DOCTYPE svg PUBLIC "-//W3C//DTD SVG 1.1//EN"
 "http://www.w3.org/Graphics/SVG/1.1/DTD/svg11.dtd">
<!-- Generated by graphviz version 2.40.1 (20161225.0304)
 -->
<!-- Title: state transitions Pages: 1 -->
<svg width="624pt" height="1596pt"
 viewBox="0.00 0.00 624.05 1596.00" xmlns="http://www.w3.org/2000/svg" xmlns:xlink="http://www.w3.org/1999/xlink">
<g id="graph0" class="graph" transform="scale(1 1) rotate(0) translate(4 1592)">
<title>state transitions</title>
<polygon fill="#ffffff" stroke="transparent" points="-4,4 -4,-1592 620.055,-1592 620.055,4 -4,4"/>
<g id="clust1" class="cluster state regular">
<title>cluster_next_state</title>
<path fill="none" stroke="#000000" stroke-width="2" d="M20,-8C20,-8 387,-8 387,-8 393,-8 399,-14 399,-20 399,-20 399,-1568 399,-1568 399,-1574 393,-1580 387,-1580 387,-1580 20,-1580 20,-1580 14,-1580 8,-1574 8,-1568 8,-1568 8,-20 8,-20 8,-14 14,-8 20,-8"/>
<text text-anchor="start" x="176.3208" y="-1561.2" font-family="Helvetica,sans-Serif" font-size="12.00" fill="#000000">next_state</text>
</g>
<!-- next_state -->
<!-- RESET -->
<g id="node2" class="node state regular">
<title>RESET</title>
<polygon fill="#ffffff" fill-opacity="0.003922" stroke="transparent" stroke-width="2" points="193,-1542 131,-1542 131,-1506 193,-1506 193,-1542"/>
<text text-anchor="start" x="141.999" y="-1520.2" font-family="Helvetica,sans-Serif" font-size="12.00" fill="#000000">RESET</text>
<path fill="none" stroke="#000000" stroke-width="2" d="M143.3333,-1507C143.3333,-1507 180.6667,-1507 180.6667,-1507 186.3333,-1507 192,-1512.6667 192,-1518.3333 192,-1518.3333 192,-1529.6667 192,-1529.6667 192,-1535.3333 186.3333,-1541 180.6667,-1541 180.6667,-1541 143.3333,-1541 143.3333,-1541 137.6667,-1541 132,-1535.3333 132,-1529.6667 132,-1529.6667 132,-1518.3333 132,-1518.3333 132,-1512.6667 137.6667,-1507 143.3333,-1507"/>
</g>
<!-- WAIT_FOR_PIPELINE -->
<g id="node3" class="node state regular">
<title>WAIT_FOR_PIPELINE</title>
<polygon fill="#ffffff" fill-opacity="0.003922" stroke="transparent" stroke-width="2" points="234,-1460 90,-1460 90,-1424 234,-1424 234,-1460"/>
<text text-anchor="start" x="100.6602" y="-1438.2" font-family="Helvetica,sans-Serif" font-size="12.00" fill="#000000">WAIT_FOR_PIPELINE</text>
<path fill="none" stroke="#000000" stroke-width="2" d="M102.3333,-1425C102.3333,-1425 221.6667,-1425 221.6667,-1425 227.3333,-1425 233,-1430.6667 233,-1436.3333 233,-1436.3333 233,-1447.6667 233,-1447.6667 233,-1453.3333 227.3333,-1459 221.6667,-1459 221.6667,-1459 102.3333,-1459 102.3333,-1459 96.6667,-1459 91,-1453.3333 91,-1447.6667 91,-1447.6667 91,-1436.3333 91,-1436.3333 91,-1430.6667 96.6667,-1425 102.3333,-1425"/>
</g>
<!-- RESET&#45;&gt;WAIT_FOR_PIPELINE -->
<g id="edge1" class="edge transition">
<title>RESET&#45;&gt;WAIT_FOR_PIPELINE</title>
<path fill="none" stroke="#000000" d="M162,-1505.8015C162,-1495.3976 162,-1482.1215 162,-1470.3768"/>
<polygon fill="#000000" stroke="#000000" points="165.5001,-1470.1476 162,-1460.1476 158.5001,-1470.1476 165.5001,-1470.1476"/>
<text text-anchor="middle" x="163.3895" y="-1480" font-family="Helvetica,sans-Serif" font-size="10.00" fill="#000000"> </text>
</g>
<!-- INIT_MEMORY -->
<g id="node4" class="node state regular">
<title>INIT_MEMORY</title>
<polygon fill="#ffffff" fill-opacity="0.003922" stroke="transparent" stroke-width="2" points="214.5,-1378 109.5,-1378 109.5,-1342 214.5,-1342 214.5,-1378"/>
<text text-anchor="start" x="120.8366" y="-1356.2" font-family="Helvetica,sans-Serif" font-size="12.00" fill="#000000">INIT_MEMORY</text>
<path fill="none" stroke="#000000" stroke-width="2" d="M121.8333,-1343C121.8333,-1343 202.1667,-1343 202.1667,-1343 207.8333,-1343 213.5,-1348.6667 213.5,-1354.3333 213.5,-1354.3333 213.5,-1365.6667 213.5,-1365.6667 213.5,-1371.3333 207.8333,-1377 202.1667,-1377 202.1667,-1377 121.8333,-1377 121.8333,-1377 116.1667,-1377 110.5,-1371.3333 110.5,-1365.6667 110.5,-1365.6667 110.5,-1354.3333 110.5,-1354.3333 110.5,-1348.6667 116.1667,-1343 121.8333,-1343"/>
</g>
<!-- WAIT_FOR_PIPELINE&#45;&gt;INIT_MEMORY -->
<g id="edge2" class="edge transition">
<title>WAIT_FOR_PIPELINE&#45;&gt;INIT_MEMORY</title>
<path fill="none" stroke="#000000" d="M162,-1423.8015C162,-1413.3976 162,-1400.1215 162,-1388.3768"/>
<polygon fill="#000000" stroke="#000000" points="165.5001,-1388.1476 162,-1378.1476 158.5001,-1388.1476 165.5001,-1388.1476"/>
<text text-anchor="start" x="162" y="-1398" font-family="Helvetica,sans-Serif" font-size="10.00" fill="#000000">pipeline_full = &#39;1&#39; &#160;&#160;</text>
</g>
<!-- WAIT_FOR_MEM_ACCESS -->
<g id="node5" class="node state regular">
<title>WAIT_FOR_MEM_ACCESS</title>
<polygon fill="#ffffff" fill-opacity="0.003922" stroke="transparent" stroke-width="2" points="249,-1296 75,-1296 75,-1260 249,-1260 249,-1296"/>
<text text-anchor="start" x="85.6674" y="-1274.2" font-family="Helvetica,sans-Serif" font-size="12.00" fill="#000000">WAIT_FOR_MEM_ACCESS</text>
<path fill="none" stroke="#000000" stroke-width="2" d="M87.3333,-1261C87.3333,-1261 236.6667,-1261 236.6667,-1261 242.3333,-1261 248,-1266.6667 248,-1272.3333 248,-1272.3333 248,-1283.6667 248,-1283.6667 248,-1289.3333 242.3333,-1295 236.6667,-1295 236.6667,-1295 87.3333,-1295 87.3333,-1295 81.6667,-1295 76,-1289.3333 76,-1283.6667 76,-1283.6667 76,-1272.3333 76,-1272.3333 76,-1266.6667 81.6667,-1261 87.3333,-1261"/>
</g>
<!-- INIT_MEMORY&#45;&gt;WAIT_FOR_MEM_ACCESS -->
<g id="edge3" class="edge transition">
<title>INIT_MEMORY&#45;&gt;WAIT_FOR_MEM_ACCESS</title>
<path fill="none" stroke="#000000" d="M162,-1341.8015C162,-1331.3976 162,-1318.1215 162,-1306.3768"/>
<polygon fill="#000000" stroke="#000000" points="165.5001,-1306.1476 162,-1296.1476 158.5001,-1306.1476 165.5001,-1306.1476"/>
<text text-anchor="start" x="162" y="-1316" font-family="Helvetica,sans-Serif" font-size="10.00" fill="#000000">loopendcnt(8) = &#39;1&#39; &#160;&#160;</text>
</g>
<!-- EKEY_KEY_XOR -->
<g id="node6" class="node state regular">
<title>EKEY_KEY_XOR</title>
<polygon fill="#ffffff" fill-opacity="0.003922" stroke="transparent" stroke-width="2" points="176.5,-1214 59.5,-1214 59.5,-1178 176.5,-1178 176.5,-1214"/>
<text text-anchor="start" x="70.8192" y="-1192.2" font-family="Helvetica,sans-Serif" font-size="12.00" fill="#000000">EKEY_KEY_XOR</text>
<path fill="none" stroke="#000000" stroke-width="2" d="M71.8333,-1179C71.8333,-1179 164.1667,-1179 164.1667,-1179 169.8333,-1179 175.5,-1184.6667 175.5,-1190.3333 175.5,-1190.3333 175.5,-1201.6667 175.5,-1201.6667 175.5,-1207.3333 169.8333,-1213 164.1667,-1213 164.1667,-1213 71.8333,-1213 71.8333,-1213 66.1667,-1213 60.5,-1207.3333 60.5,-1201.6667 60.5,-1201.6667 60.5,-1190.3333 60.5,-1190.3333 60.5,-1184.6667 66.1667,-1179 71.8333,-1179"/>
</g>
<!-- WAIT_FOR_MEM_ACCESS&#45;&gt;EKEY_KEY_XOR -->
<g id="edge4" class="edge transition">
<title>WAIT_FOR_MEM_ACCESS&#45;&gt;EKEY_KEY_XOR</title>
<path fill="none" stroke="#000000" d="M152.235,-1259.8015C146.4815,-1249.0791 139.091,-1235.306 132.6502,-1223.3026"/>
<polygon fill="#000000" stroke="#000000" points="135.55,-1221.3043 127.7377,-1214.1476 129.3819,-1224.6141 135.55,-1221.3043"/>
<text text-anchor="start" x="142" y="-1234" font-family="Helvetica,sans-Serif" font-size="10.00" fill="#000000">start_expand_key = &#39;1&#39; &#160;&#160;</text>
</g>
<!-- EKEY_ENC_P_PREPARE -->
<g id="node7" class="node state regular">
<title>EKEY_ENC_P_PREPARE</title>
<polygon fill="#ffffff" fill-opacity="0.003922" stroke="transparent" stroke-width="2" points="180,-1132 16,-1132 16,-1096 180,-1096 180,-1132"/>
<text text-anchor="start" x="26.6528" y="-1110.2" font-family="Helvetica,sans-Serif" font-size="12.00" fill="#000000">EKEY_ENC_P_PREPARE</text>
<path fill="none" stroke="#000000" stroke-width="2" d="M28.3333,-1097C28.3333,-1097 167.6667,-1097 167.6667,-1097 173.3333,-1097 179,-1102.6667 179,-1108.3333 179,-1108.3333 179,-1119.6667 179,-1119.6667 179,-1125.3333 173.3333,-1131 167.6667,-1131 167.6667,-1131 28.3333,-1131 28.3333,-1131 22.6667,-1131 17,-1125.3333 17,-1119.6667 17,-1119.6667 17,-1108.3333 17,-1108.3333 17,-1102.6667 22.6667,-1097 28.3333,-1097"/>
</g>
<!-- EKEY_KEY_XOR&#45;&gt;EKEY_ENC_P_PREPARE -->
<g id="edge5" class="edge transition">
<title>EKEY_KEY_XOR&#45;&gt;EKEY_ENC_P_PREPARE</title>
<path fill="none" stroke="#000000" d="M71.1572,-1177.9368C64.5825,-1173.396 58.7068,-1167.8154 54.687,-1161 50.1332,-1153.2793 52.7661,-1145.7512 58.5036,-1139.063"/>
<polygon fill="#000000" stroke="#000000" points="60.9212,-1141.5938 65.7547,-1132.1658 56.0968,-1136.5218 60.9212,-1141.5938"/>
<text text-anchor="start" x="54" y="-1152" font-family="Helvetica,sans-Serif" font-size="10.00" fill="#000000">loopendcnt(4) = &#39;1&#39; and loopendcnt(1) = &#39;1&#39; and loopendcnt(0) = &#39;1&#39; &#160;&#160;</text>
</g>
<!-- EKEY_ENC_P -->
<g id="node8" class="node state regular">
<title>EKEY_ENC_P</title>
<polygon fill="#ffffff" fill-opacity="0.003922" stroke="transparent" stroke-width="2" points="257,-1050 157,-1050 157,-1014 257,-1014 257,-1050"/>
<text text-anchor="start" x="167.658" y="-1028.2" font-family="Helvetica,sans-Serif" font-size="12.00" fill="#000000">EKEY_ENC_P</text>
<path fill="none" stroke="#000000" stroke-width="2" d="M169.3333,-1015C169.3333,-1015 244.6667,-1015 244.6667,-1015 250.3333,-1015 256,-1020.6667 256,-1026.3333 256,-1026.3333 256,-1037.6667 256,-1037.6667 256,-1043.3333 250.3333,-1049 244.6667,-1049 244.6667,-1049 169.3333,-1049 169.3333,-1049 163.6667,-1049 158,-1043.3333 158,-1037.6667 158,-1037.6667 158,-1026.3333 158,-1026.3333 158,-1020.6667 163.6667,-1015 169.3333,-1015"/>
</g>
<!-- EKEY_ENC_P_PREPARE&#45;&gt;EKEY_ENC_P -->
<g id="edge6" class="edge transition">
<title>EKEY_ENC_P_PREPARE&#45;&gt;EKEY_ENC_P</title>
<path fill="none" stroke="#000000" d="M122.1906,-1095.8015C137.5725,-1084.2298 157.6775,-1069.105 174.4515,-1056.486"/>
<polygon fill="#000000" stroke="#000000" points="176.9899,-1058.9563 182.877,-1050.1476 172.7817,-1053.3624 176.9899,-1058.9563"/>
<text text-anchor="middle" x="160.3895" y="-1070" font-family="Helvetica,sans-Serif" font-size="10.00" fill="#000000"> </text>
</g>
<!-- EKEY_ENC_UPDATE_SUBKEY -->
<g id="node9" class="node state regular">
<title>EKEY_ENC_UPDATE_SUBKEY</title>
<polygon fill="#ffffff" fill-opacity="0.003922" stroke="transparent" stroke-width="2" points="212,-956 16,-956 16,-920 212,-920 212,-956"/>
<text text-anchor="start" x="26.6532" y="-934.2" font-family="Helvetica,sans-Serif" font-size="12.00" fill="#000000">EKEY_ENC_UPDATE_SUBKEY</text>
<path fill="none" stroke="#000000" stroke-width="2" d="M28.3333,-921C28.3333,-921 199.6667,-921 199.6667,-921 205.3333,-921 211,-926.6667 211,-932.3333 211,-932.3333 211,-943.6667 211,-943.6667 211,-949.3333 205.3333,-955 199.6667,-955 199.6667,-955 28.3333,-955 28.3333,-955 22.6667,-955 17,-949.3333 17,-943.6667 17,-943.6667 17,-932.3333 17,-932.3333 17,-926.6667 22.6667,-921 28.3333,-921"/>
</g>
<!-- EKEY_ENC_P&#45;&gt;EKEY_ENC_UPDATE_SUBKEY -->
<g id="edge7" class="edge transition">
<title>EKEY_ENC_P&#45;&gt;EKEY_ENC_UPDATE_SUBKEY</title>
<path fill="none" stroke="#000000" d="M156.8551,-1018.5284C121.6739,-1009.0196 80.7853,-997.8264 80.156,-997 72.3461,-986.7432 77.3522,-974.5047 85.6638,-963.8399"/>
<polygon fill="#000000" stroke="#000000" points="88.5365,-965.873 92.5066,-956.0502 83.2774,-961.2533 88.5365,-965.873"/>
<text text-anchor="start" x="80" y="-982" font-family="Helvetica,sans-Serif" font-size="10.00" fill="#000000">bf_done = &#39;1&#39; &#160;&#160;</text>
</g>
<!-- EKEY_ENC_UPDATE_SUBKEY&#45;&gt;EKEY_ENC_P_PREPARE -->
<g id="edge9" class="edge transition">
<title>EKEY_ENC_UPDATE_SUBKEY&#45;&gt;EKEY_ENC_P_PREPARE</title>
<path fill="none" stroke="#000000" d="M88.2752,-956.1529C85.0702,-958.6902 81.9027,-961.3414 79,-964 59.805,-981.5808 54.9669,-988.7857 48.504,-1014 44.5313,-1029.499 43.3322,-1034.8589 48.504,-1050 53.2798,-1063.9818 62.4873,-1077.2787 71.6784,-1088.0931"/>
<polygon fill="#000000" stroke="#000000" points="69.3493,-1090.7385 78.63,-1095.8492 74.562,-1086.0664 69.3493,-1090.7385"/>
<text text-anchor="start" x="48" y="-1029" font-family="Helvetica,sans-Serif" font-size="10.00" fill="#000000">not (loopcnt(3) = &#39;1&#39;) &#160;&#160;</text>
</g>
<!-- EKEY_ENC_SBOX_PREPARE_START -->
<g id="node10" class="node state regular">
<title>EKEY_ENC_SBOX_PREPARE_START</title>
<polygon fill="#ffffff" fill-opacity="0.003922" stroke="transparent" stroke-width="2" points="252,-874 16,-874 16,-838 252,-838 252,-874"/>
<text text-anchor="start" x="26.9822" y="-852.2" font-family="Helvetica,sans-Serif" font-size="12.00" fill="#000000">EKEY_ENC_SBOX_PREPARE_START</text>
<path fill="none" stroke="#000000" stroke-width="2" d="M28.3333,-839C28.3333,-839 239.6667,-839 239.6667,-839 245.3333,-839 251,-844.6667 251,-850.3333 251,-850.3333 251,-861.6667 251,-861.6667 251,-867.3333 245.3333,-873 239.6667,-873 239.6667,-873 28.3333,-873 28.3333,-873 22.6667,-873 17,-867.3333 17,-861.6667 17,-861.6667 17,-850.3333 17,-850.3333 17,-844.6667 22.6667,-839 28.3333,-839"/>
</g>
<!-- EKEY_ENC_UPDATE_SUBKEY&#45;&gt;EKEY_ENC_SBOX_PREPARE_START -->
<g id="edge8" class="edge transition">
<title>EKEY_ENC_UPDATE_SUBKEY&#45;&gt;EKEY_ENC_SBOX_PREPARE_START</title>
<path fill="none" stroke="#000000" d="M118.4386,-919.8015C121.0021,-909.2915 124.2804,-895.8503 127.1664,-884.0177"/>
<polygon fill="#000000" stroke="#000000" points="130.6044,-884.6922 129.5738,-874.1476 123.8038,-883.0334 130.6044,-884.6922"/>
<text text-anchor="start" x="125" y="-894" font-family="Helvetica,sans-Serif" font-size="10.00" fill="#000000">loopcnt(3) = &#39;1&#39; &#160;&#160;</text>
</g>
<!-- EKEY_ENC_SBOX -->
<g id="node12" class="node state regular">
<title>EKEY_ENC_SBOX</title>
<polygon fill="#ffffff" fill-opacity="0.003922" stroke="transparent" stroke-width="2" points="197,-792 71,-792 71,-756 197,-756 197,-792"/>
<text text-anchor="start" x="81.9878" y="-770.2" font-family="Helvetica,sans-Serif" font-size="12.00" fill="#000000">EKEY_ENC_SBOX</text>
<path fill="none" stroke="#000000" stroke-width="2" d="M83.3333,-757C83.3333,-757 184.6667,-757 184.6667,-757 190.3333,-757 196,-762.6667 196,-768.3333 196,-768.3333 196,-779.6667 196,-779.6667 196,-785.3333 190.3333,-791 184.6667,-791 184.6667,-791 83.3333,-791 83.3333,-791 77.6667,-791 72,-785.3333 72,-779.6667 72,-779.6667 72,-768.3333 72,-768.3333 72,-762.6667 77.6667,-757 83.3333,-757"/>
</g>
<!-- EKEY_ENC_SBOX_PREPARE_START&#45;&gt;EKEY_ENC_SBOX -->
<g id="edge10" class="edge transition">
<title>EKEY_ENC_SBOX_PREPARE_START&#45;&gt;EKEY_ENC_SBOX</title>
<path fill="none" stroke="#000000" d="M134,-837.8015C134,-827.3976 134,-814.1215 134,-802.3768"/>
<polygon fill="#000000" stroke="#000000" points="137.5001,-802.1476 134,-792.1476 130.5001,-802.1476 137.5001,-802.1476"/>
<text text-anchor="middle" x="135.3895" y="-812" font-family="Helvetica,sans-Serif" font-size="10.00" fill="#000000"> </text>
</g>
<!-- EKEY_ENC_SBOX_PREPARE_CONTINUE -->
<g id="node11" class="node state regular">
<title>EKEY_ENC_SBOX_PREPARE_CONTINUE</title>
<polygon fill="#ffffff" fill-opacity="0.003922" stroke="transparent" stroke-width="2" points="277.5,-710 18.5,-710 18.5,-674 277.5,-674 277.5,-710"/>
<text text-anchor="start" x="29.82" y="-688.2" font-family="Helvetica,sans-Serif" font-size="12.00" fill="#000000">EKEY_ENC_SBOX_PREPARE_CONTINUE</text>
<path fill="none" stroke="#000000" stroke-width="2" d="M30.8333,-675C30.8333,-675 265.1667,-675 265.1667,-675 270.8333,-675 276.5,-680.6667 276.5,-686.3333 276.5,-686.3333 276.5,-697.6667 276.5,-697.6667 276.5,-703.3333 270.8333,-709 265.1667,-709 265.1667,-709 30.8333,-709 30.8333,-709 25.1667,-709 19.5,-703.3333 19.5,-697.6667 19.5,-697.6667 19.5,-686.3333 19.5,-686.3333 19.5,-680.6667 25.1667,-675 30.8333,-675"/>
</g>
<!-- EKEY_ENC_SBOX_PREPARE_CONTINUE&#45;&gt;WAIT_FOR_MEM_ACCESS -->
<g id="edge12" class="edge transition">
<title>EKEY_ENC_SBOX_PREPARE_CONTINUE&#45;&gt;WAIT_FOR_MEM_ACCESS</title>
<path fill="none" stroke="#000000" d="M277.7459,-706.0797C320.2929,-712.0117 358.4588,-719.3192 365,-727 492.518,-876.7334 361,-972.8253 361,-1169.5 361,-1237 361,-1237 361,-1237 361,-1248.4504 309.8065,-1258.8328 259.3503,-1266.285"/>
<polygon fill="#000000" stroke="#000000" points="258.6827,-1262.845 249.2843,-1267.7359 259.6813,-1269.7734 258.6827,-1262.845"/>
<text text-anchor="start" x="398" y="-988" font-family="Helvetica,sans-Serif" font-size="10.00" fill="#000000">loopendcnt(9) = &#39;1&#39; and loopendcnt(0) = &#39;1&#39; &#160;&#160;</text>
<text text-anchor="start" x="398" y="-976" font-family="Helvetica,sans-Serif" font-size="10.00" fill="#000000">not (costcnt(COST+1) = &#39;1&#39; and costcnt(0) = &#39;1&#39;) &#160;&#160;</text>
</g>
<!-- EKEY_ENC_SBOX_PREPARE_CONTINUE&#45;&gt;EKEY_ENC_SBOX -->
<g id="edge13" class="edge transition">
<title>EKEY_ENC_SBOX_PREPARE_CONTINUE&#45;&gt;EKEY_ENC_SBOX</title>
<path fill="none" stroke="#000000" d="M144.9016,-710.1476C143.1088,-720.6482 140.8144,-734.0872 138.7933,-745.925"/>
<polygon fill="#000000" stroke="#000000" points="135.34,-745.3551 137.1071,-755.8015 142.2402,-746.5332 135.34,-745.3551"/>
<text text-anchor="start" x="141" y="-730" font-family="Helvetica,sans-Serif" font-size="10.00" fill="#000000">not (loopendcnt(9) = &#39;1&#39; and loopendcnt(0) = &#39;1&#39;) &#160;&#160;</text>
</g>
<!-- PREPARE_ENC_MAGIC_HIGH -->
<g id="node13" class="node state regular">
<title>PREPARE_ENC_MAGIC_HIGH</title>
<polygon fill="#ffffff" fill-opacity="0.003922" stroke="transparent" stroke-width="2" points="245,-616 51,-616 51,-580 245,-580 245,-616"/>
<text text-anchor="start" x="61.9972" y="-594.2" font-family="Helvetica,sans-Serif" font-size="12.00" fill="#000000">PREPARE_ENC_MAGIC_HIGH</text>
<path fill="none" stroke="#000000" stroke-width="2" d="M63.3333,-581C63.3333,-581 232.6667,-581 232.6667,-581 238.3333,-581 244,-586.6667 244,-592.3333 244,-592.3333 244,-603.6667 244,-603.6667 244,-609.3333 238.3333,-615 232.6667,-615 232.6667,-615 63.3333,-615 63.3333,-615 57.6667,-615 52,-609.3333 52,-603.6667 52,-603.6667 52,-592.3333 52,-592.3333 52,-586.6667 57.6667,-581 63.3333,-581"/>
</g>
<!-- EKEY_ENC_SBOX_PREPARE_CONTINUE&#45;&gt;PREPARE_ENC_MAGIC_HIGH -->
<g id="edge11" class="edge transition">
<title>EKEY_ENC_SBOX_PREPARE_CONTINUE&#45;&gt;PREPARE_ENC_MAGIC_HIGH</title>
<path fill="none" stroke="#000000" d="M148,-673.8759C148,-660.3516 148,-641.6192 148,-626.1514"/>
<polygon fill="#000000" stroke="#000000" points="151.5001,-626.0685 148,-616.0685 144.5001,-626.0685 151.5001,-626.0685"/>
<text text-anchor="start" x="148" y="-648" font-family="Helvetica,sans-Serif" font-size="10.00" fill="#000000">costcnt(COST+1) = &#39;1&#39; and costcnt(0) = &#39;1&#39; &#160;&#160;</text>
<text text-anchor="start" x="148" y="-636" font-family="Helvetica,sans-Serif" font-size="10.00" fill="#000000">loopendcnt(9) = &#39;1&#39; and loopendcnt(0) = &#39;1&#39; &#160;&#160;</text>
</g>
<!-- EKEY_ENC_SBOX&#45;&gt;EKEY_ENC_SBOX_PREPARE_CONTINUE -->
<g id="edge14" class="edge transition">
<title>EKEY_ENC_SBOX&#45;&gt;EKEY_ENC_SBOX_PREPARE_CONTINUE</title>
<path fill="none" stroke="#000000" d="M82.6662,-755.8976C69.8136,-748.378 61.5771,-738.6565 69.156,-727 71.8219,-722.8998 75.0907,-719.2761 78.7651,-716.0741"/>
<polygon fill="#000000" stroke="#000000" points="80.8867,-718.858 86.8138,-710.0762 76.704,-713.2451 80.8867,-718.858"/>
<text text-anchor="start" x="69" y="-730" font-family="Helvetica,sans-Serif" font-size="10.00" fill="#000000">bf_done = &#39;1&#39; &#160;&#160;</text>
</g>
<!-- ENC_MAGIC_HIGH -->
<g id="node14" class="node state regular">
<title>ENC_MAGIC_HIGH</title>
<polygon fill="#ffffff" fill-opacity="0.003922" stroke="transparent" stroke-width="2" points="203.5,-522 74.5,-522 74.5,-486 203.5,-486 203.5,-522"/>
<text text-anchor="start" x="85.5024" y="-500.2" font-family="Helvetica,sans-Serif" font-size="12.00" fill="#000000">ENC_MAGIC_HIGH</text>
<path fill="none" stroke="#000000" stroke-width="2" d="M86.8333,-487C86.8333,-487 191.1667,-487 191.1667,-487 196.8333,-487 202.5,-492.6667 202.5,-498.3333 202.5,-498.3333 202.5,-509.6667 202.5,-509.6667 202.5,-515.3333 196.8333,-521 191.1667,-521 191.1667,-521 86.8333,-521 86.8333,-521 81.1667,-521 75.5,-515.3333 75.5,-509.6667 75.5,-509.6667 75.5,-498.3333 75.5,-498.3333 75.5,-492.6667 81.1667,-487 86.8333,-487"/>
</g>
<!-- PREPARE_ENC_MAGIC_HIGH&#45;&gt;ENC_MAGIC_HIGH -->
<g id="edge15" class="edge transition">
<title>PREPARE_ENC_MAGIC_HIGH&#45;&gt;ENC_MAGIC_HIGH</title>
<path fill="none" stroke="#000000" d="M146.2647,-579.8759C144.9698,-566.3516 143.1763,-547.6192 141.6953,-532.1514"/>
<polygon fill="#000000" stroke="#000000" points="145.1672,-531.6894 140.73,-522.0685 138.1991,-532.3566 145.1672,-531.6894"/>
<text text-anchor="middle" x="145.3895" y="-548" font-family="Helvetica,sans-Serif" font-size="10.00" fill="#000000"> </text>
</g>
<!-- ENC_MAGIC_HIGH&#45;&gt;PREPARE_ENC_MAGIC_HIGH -->
<g id="edge17" class="edge transition">
<title>ENC_MAGIC_HIGH&#45;&gt;PREPARE_ENC_MAGIC_HIGH</title>
<path fill="none" stroke="#000000" d="M145.7842,-522.2962C147.471,-527.611 149.0635,-533.4737 150,-539 152.0304,-550.9806 151.9614,-555.7031 151.0385,-569.7445"/>
<polygon fill="#000000" stroke="#000000" points="147.5385,-569.6287 150.3647,-579.8396 154.523,-570.095 147.5385,-569.6287"/>
<text text-anchor="start" x="151" y="-554" font-family="Helvetica,sans-Serif" font-size="10.00" fill="#000000">bf_done = &#39;1&#39; &#160;&#160;</text>
<text text-anchor="start" x="151" y="-542" font-family="Helvetica,sans-Serif" font-size="10.00" fill="#000000">not (loopendcnt(6) = &#39;1&#39;) &#160;&#160;</text>
</g>
<!-- PREPARE_ENC_MAGIC_MIDDLE -->
<g id="node15" class="node state regular">
<title>PREPARE_ENC_MAGIC_MIDDLE</title>
<polygon fill="#ffffff" fill-opacity="0.003922" stroke="transparent" stroke-width="2" points="243.5,-428 34.5,-428 34.5,-392 243.5,-392 243.5,-428"/>
<text text-anchor="start" x="45.8304" y="-406.2" font-family="Helvetica,sans-Serif" font-size="12.00" fill="#000000">PREPARE_ENC_MAGIC_MIDDLE</text>
<path fill="none" stroke="#000000" stroke-width="2" d="M46.8333,-393C46.8333,-393 231.1667,-393 231.1667,-393 236.8333,-393 242.5,-398.6667 242.5,-404.3333 242.5,-404.3333 242.5,-415.6667 242.5,-415.6667 242.5,-421.3333 236.8333,-427 231.1667,-427 231.1667,-427 46.8333,-427 46.8333,-427 41.1667,-427 35.5,-421.3333 35.5,-415.6667 35.5,-415.6667 35.5,-404.3333 35.5,-404.3333 35.5,-398.6667 41.1667,-393 46.8333,-393"/>
</g>
<!-- ENC_MAGIC_HIGH&#45;&gt;PREPARE_ENC_MAGIC_MIDDLE -->
<g id="edge16" class="edge transition">
<title>ENC_MAGIC_HIGH&#45;&gt;PREPARE_ENC_MAGIC_MIDDLE</title>
<path fill="none" stroke="#000000" d="M139,-485.8759C139,-472.3516 139,-453.6192 139,-438.1514"/>
<polygon fill="#000000" stroke="#000000" points="142.5001,-438.0685 139,-428.0685 135.5001,-438.0685 142.5001,-438.0685"/>
<text text-anchor="start" x="139" y="-460" font-family="Helvetica,sans-Serif" font-size="10.00" fill="#000000">loopendcnt(6) = &#39;1&#39; &#160;&#160;</text>
<text text-anchor="start" x="139" y="-448" font-family="Helvetica,sans-Serif" font-size="10.00" fill="#000000">bf_done = &#39;1&#39; &#160;&#160;</text>
</g>
<!-- ENC_MAGIC_MIDDLE -->
<g id="node16" class="node state regular">
<title>ENC_MAGIC_MIDDLE</title>
<polygon fill="#ffffff" fill-opacity="0.003922" stroke="transparent" stroke-width="2" points="191.5,-334 46.5,-334 46.5,-298 191.5,-298 191.5,-334"/>
<text text-anchor="start" x="57.8356" y="-312.2" font-family="Helvetica,sans-Serif" font-size="12.00" fill="#000000">ENC_MAGIC_MIDDLE</text>
<path fill="none" stroke="#000000" stroke-width="2" d="M58.8333,-299C58.8333,-299 179.1667,-299 179.1667,-299 184.8333,-299 190.5,-304.6667 190.5,-310.3333 190.5,-310.3333 190.5,-321.6667 190.5,-321.6667 190.5,-327.3333 184.8333,-333 179.1667,-333 179.1667,-333 58.8333,-333 58.8333,-333 53.1667,-333 47.5,-327.3333 47.5,-321.6667 47.5,-321.6667 47.5,-310.3333 47.5,-310.3333 47.5,-304.6667 53.1667,-299 58.8333,-299"/>
</g>
<!-- PREPARE_ENC_MAGIC_MIDDLE&#45;&gt;ENC_MAGIC_MIDDLE -->
<g id="edge18" class="edge transition">
<title>PREPARE_ENC_MAGIC_MIDDLE&#45;&gt;ENC_MAGIC_MIDDLE</title>
<path fill="none" stroke="#000000" d="M128.7072,-391.9857C126.1352,-386.6753 123.6926,-380.7444 122.221,-375 119.6971,-365.148 118.645,-354.0781 118.3032,-344.2112"/>
<polygon fill="#000000" stroke="#000000" points="121.8015,-344.0461 118.1752,-334.0913 114.8021,-344.1348 121.8015,-344.0461"/>
<text text-anchor="middle" x="123.3895" y="-360" font-family="Helvetica,sans-Serif" font-size="10.00" fill="#000000"> </text>
</g>
<!-- ENC_MAGIC_MIDDLE&#45;&gt;PREPARE_ENC_MAGIC_MIDDLE -->
<g id="edge20" class="edge transition">
<title>ENC_MAGIC_MIDDLE&#45;&gt;PREPARE_ENC_MAGIC_MIDDLE</title>
<path fill="none" stroke="#000000" d="M122.8444,-334.0685C125.7188,-347.5785 129.7039,-366.3082 132.9968,-381.785"/>
<polygon fill="#000000" stroke="#000000" points="129.6393,-382.8232 135.1438,-391.8759 136.486,-381.3664 129.6393,-382.8232"/>
<text text-anchor="start" x="131" y="-366" font-family="Helvetica,sans-Serif" font-size="10.00" fill="#000000">bf_done = &#39;1&#39; &#160;&#160;</text>
<text text-anchor="start" x="131" y="-354" font-family="Helvetica,sans-Serif" font-size="10.00" fill="#000000">not (loopendcnt(6) = &#39;1&#39;) &#160;&#160;</text>
</g>
<!-- PREPARE_ENC_MAGIC_LOW -->
<g id="node17" class="node state regular">
<title>PREPARE_ENC_MAGIC_LOW</title>
<polygon fill="#ffffff" fill-opacity="0.003922" stroke="transparent" stroke-width="2" points="214.5,-240 23.5,-240 23.5,-204 214.5,-204 214.5,-240"/>
<text text-anchor="start" x="34.8286" y="-218.2" font-family="Helvetica,sans-Serif" font-size="12.00" fill="#000000">PREPARE_ENC_MAGIC_LOW</text>
<path fill="none" stroke="#000000" stroke-width="2" d="M35.8333,-205C35.8333,-205 202.1667,-205 202.1667,-205 207.8333,-205 213.5,-210.6667 213.5,-216.3333 213.5,-216.3333 213.5,-227.6667 213.5,-227.6667 213.5,-233.3333 207.8333,-239 202.1667,-239 202.1667,-239 35.8333,-239 35.8333,-239 30.1667,-239 24.5,-233.3333 24.5,-227.6667 24.5,-227.6667 24.5,-216.3333 24.5,-216.3333 24.5,-210.6667 30.1667,-205 35.8333,-205"/>
</g>
<!-- ENC_MAGIC_MIDDLE&#45;&gt;PREPARE_ENC_MAGIC_LOW -->
<g id="edge19" class="edge transition">
<title>ENC_MAGIC_MIDDLE&#45;&gt;PREPARE_ENC_MAGIC_LOW</title>
<path fill="none" stroke="#000000" d="M119,-297.8759C119,-284.3516 119,-265.6192 119,-250.1514"/>
<polygon fill="#000000" stroke="#000000" points="122.5001,-250.0685 119,-240.0685 115.5001,-250.0685 122.5001,-250.0685"/>
<text text-anchor="start" x="119" y="-272" font-family="Helvetica,sans-Serif" font-size="10.00" fill="#000000">loopendcnt(6) = &#39;1&#39; &#160;&#160;</text>
<text text-anchor="start" x="119" y="-260" font-family="Helvetica,sans-Serif" font-size="10.00" fill="#000000">bf_done = &#39;1&#39; &#160;&#160;</text>
</g>
<!-- ENC_MAGIC_LOW -->
<g id="node18" class="node state regular">
<title>ENC_MAGIC_LOW</title>
<polygon fill="#ffffff" fill-opacity="0.003922" stroke="transparent" stroke-width="2" points="162.5,-146 35.5,-146 35.5,-110 162.5,-110 162.5,-146"/>
<text text-anchor="start" x="46.8338" y="-124.2" font-family="Helvetica,sans-Serif" font-size="12.00" fill="#000000">ENC_MAGIC_LOW</text>
<path fill="none" stroke="#000000" stroke-width="2" d="M47.8333,-111C47.8333,-111 150.1667,-111 150.1667,-111 155.8333,-111 161.5,-116.6667 161.5,-122.3333 161.5,-122.3333 161.5,-133.6667 161.5,-133.6667 161.5,-139.3333 155.8333,-145 150.1667,-145 150.1667,-145 47.8333,-145 47.8333,-145 42.1667,-145 36.5,-139.3333 36.5,-133.6667 36.5,-133.6667 36.5,-122.3333 36.5,-122.3333 36.5,-116.6667 42.1667,-111 47.8333,-111"/>
</g>
<!-- PREPARE_ENC_MAGIC_LOW&#45;&gt;ENC_MAGIC_LOW -->
<g id="edge21" class="edge transition">
<title>PREPARE_ENC_MAGIC_LOW&#45;&gt;ENC_MAGIC_LOW</title>
<path fill="none" stroke="#000000" d="M108.7072,-203.9857C106.1352,-198.6753 103.6926,-192.7444 102.221,-187 99.6971,-177.148 98.645,-166.0781 98.3032,-156.2112"/>
<polygon fill="#000000" stroke="#000000" points="101.8015,-156.0461 98.1752,-146.0913 94.8021,-156.1348 101.8015,-156.0461"/>
<text text-anchor="middle" x="103.3895" y="-172" font-family="Helvetica,sans-Serif" font-size="10.00" fill="#000000"> </text>
</g>
<!-- ENC_MAGIC_LOW&#45;&gt;PREPARE_ENC_MAGIC_LOW -->
<g id="edge23" class="edge transition">
<title>ENC_MAGIC_LOW&#45;&gt;PREPARE_ENC_MAGIC_LOW</title>
<path fill="none" stroke="#000000" d="M102.8444,-146.0685C105.7188,-159.5785 109.7039,-178.3082 112.9968,-193.785"/>
<polygon fill="#000000" stroke="#000000" points="109.6393,-194.8232 115.1438,-203.8759 116.486,-193.3664 109.6393,-194.8232"/>
<text text-anchor="start" x="111" y="-178" font-family="Helvetica,sans-Serif" font-size="10.00" fill="#000000">bf_done = &#39;1&#39; &#160;&#160;</text>
<text text-anchor="start" x="111" y="-166" font-family="Helvetica,sans-Serif" font-size="10.00" fill="#000000">not (loopendcnt(6) = &#39;1&#39;) &#160;&#160;</text>
</g>
<!-- FINISH -->
<g id="node19" class="node state regular">
<title>FINISH</title>
<polygon fill="#ffffff" fill-opacity="0.003922" stroke="transparent" stroke-width="2" points="129.5,-52 68.5,-52 68.5,-16 129.5,-16 129.5,-52"/>
<text text-anchor="start" x="79.8356" y="-30.2" font-family="Helvetica,sans-Serif" font-size="12.00" fill="#000000">FINISH</text>
<path fill="none" stroke="#000000" stroke-width="2" d="M80.8333,-17C80.8333,-17 117.1667,-17 117.1667,-17 122.8333,-17 128.5,-22.6667 128.5,-28.3333 128.5,-28.3333 128.5,-39.6667 128.5,-39.6667 128.5,-45.3333 122.8333,-51 117.1667,-51 117.1667,-51 80.8333,-51 80.8333,-51 75.1667,-51 69.5,-45.3333 69.5,-39.6667 69.5,-39.6667 69.5,-28.3333 69.5,-28.3333 69.5,-22.6667 75.1667,-17 80.8333,-17"/>
</g>
<!-- ENC_MAGIC_LOW&#45;&gt;FINISH -->
<g id="edge22" class="edge transition">
<title>ENC_MAGIC_LOW&#45;&gt;FINISH</title>
<path fill="none" stroke="#000000" d="M99,-109.8759C99,-96.3516 99,-77.6192 99,-62.1514"/>
<polygon fill="#000000" stroke="#000000" points="102.5001,-62.0685 99,-52.0685 95.5001,-62.0685 102.5001,-62.0685"/>
<text text-anchor="start" x="99" y="-84" font-family="Helvetica,sans-Serif" font-size="10.00" fill="#000000">loopendcnt(6) = &#39;1&#39; &#160;&#160;</text>
<text text-anchor="start" x="99" y="-72" font-family="Helvetica,sans-Serif" font-size="10.00" fill="#000000">bf_done = &#39;1&#39; &#160;&#160;</text>
</g>
</g>
</svg>
